PathFileType	4	(X/Y/Z)	1_2_rein_104_p0_0-169.trc
DataRate	CameraRate	NumFrames	NumMarkers	Units	OrigDataRate	OrigDataStartFrame	OrigNumFrames
60.0	60.0	7	27	m	60.0	21	170
Frame#	Time	RHip			RKnee			RAnkle			RBigToe			RSmallToe			RHeel			LHip			LKnee			LAnkle			LBigToe			LSmallToe			LHeel			Neck			Head			Nose			RShoulder			RElbow			RWrist			RThumb			RIndex			RPinky			LShoulder			LElbow			LWrist			LThumb			LIndex			LPinky			
		X1	Y1	Z1	X2	Y2	Z2	X3	Y3	Z3	X4	Y4	Z4	X5	Y5	Z5	X6	Y6	Z6	X7	Y7	Z7	X8	Y8	Z8	X9	Y9	Z9	X10	Y10	Z10	X11	Y11	Z11	X12	Y12	Z12	X13	Y13	Z13	X14	Y14	Z14	X15	Y15	Z15	X16	Y16	Z16	X17	Y17	Z17	X18	Y18	Z18	X19	Y19	Z19	X20	Y20	Z20	X21	Y21	Z21	X22	Y22	Z22	X23	Y23	Z23	X24	Y24	Z24	X25	Y25	Z25	X26	Y26	Z26	X27	Y27	Z27	
21	0.35	0.4033947545585576	0.19064957931975954	1.1246070644448924	0.4070211173135068	0.27873718320618107	1.5620653273883878	0.41687642970329075	0.37178902040798634	1.968706757073498	0.448623188696966	0.1779302387573132	1.9938806092028172	0.49990129082611523	0.24223539251019505	2.0127831344841023	0.4074882691789087	0.46319316241390285	2.046126483052512	0.17327757080262146	0.19906534794189482	1.1374839905182739	0.18267407862895937	0.29992873230310774	1.5849921237356386	0.18098885089905084	0.49293834421568083	2.0212066961285764	0.17831472988325878	0.12962999502032305	1.9647460816658802	0.11963954416674429	0.22145545245307807	1.9752224337414825	0.1853829272648861	0.597164478746904	2.1346191505109138	0.28188171447499266	0.1454249300209381	0.4265179798175	0.27200957175043	0.08035982665685958	0.17049746947427463	0.2770462791507214	0.050942266989292176	0.2975477661192672	0.46303054773737	0.1553103297416513	0.5440689264143831	0.512643882170208	0.1258222557535953	0.8589759632636971	0.375094783147759	0.035900327832701695	1.0609164714557926	0.3007164198634275	0.00963721158827224	1.117438748603948	0.2931109152906646	0.022909261156022747	1.130704298367356	0.2850160174982763	0.05977683123400986	1.1379473618481397	0.09842387347779148	0.1704473079924701	0.5507403114122633	0.08789784525491647	0.12107455298135648	0.8274376992496137	0.23428771211622784	0.0520510997327663	1.0389848672743478	0.30880132948693373	-0.00581719846451939	1.0910006055068537	0.3185427274506637	0.023460810412847963	1.1284510596451274	0.3012263647772742	0.05865066629810316	1.136411547398134
22	0.36666666666666664	0.40351402438226514	0.1900211490502728	1.124387941000021	0.4073688477573722	0.2769783736267406	1.5652972299073664	0.4207527006251495	0.3563609497590018	1.9602395092450806	0.44857092830442097	0.17747796387302464	1.993405951756176	0.4999566304479454	0.2416429088378241	2.0124177848982123	0.4074882826892447	0.4634379953017466	2.0460126828496032	0.17821715632729604	0.18536124550256922	1.137055356548776	0.1795263328145545	0.2878803819246547	1.5808865099192393	0.18089352613980272	0.49287295249332297	2.021268687703166	0.17824124604010846	0.1298673769722992	1.96495447847758	0.11964840867516281	0.22148163660187817	1.9752658209303973	0.18482779075111846	0.5991562804654702	2.1306713867885523	0.2818525615239322	0.1454000381012583	0.426537491876529	0.2719449570231859	0.0803561812107002	0.17053238995255726	0.27704111253699026	0.05094302523149394	0.2975512716029348	0.46242992883508044	0.157418068531196	0.5407894260822323	0.517195919588327	0.12673636207620667	0.8587117004568554	0.3837932286374274	0.025059860856825093	1.0646121294195792	0.2999165041216215	-0.005284326063559	1.1155999695686565	0.29372148883515187	0.013201055105713518	1.1357907283134123	0.2975288988245493	0.06121234660989121	1.1408335171368371	0.10085556659581998	0.1816192269142934	0.55101306670098	0.08780328486310202	0.12141883111730899	0.8274582564507893	0.22333703485065823	0.050732219755607336	1.0437977150079771	0.3088237972429135	-0.0062332507938397085	1.0910228804137665	0.3115111734884816	0.00034565110433621674	1.1239771311886617	0.298630568710629	0.046585282648623626	1.145094668549081
23	0.38333333333333336	0.4028928904774403	0.1934739256413068	1.1172086772812557	0.40713113591744055	0.27881073247170873	1.5620380209805385	0.42096043091281027	0.357702996902215	1.9559689933083313	0.44142860348399876	0.15825675952194748	1.9838512135277542	0.4960371465741005	0.23166416275745333	2.007406503625196	0.4074705524704573	0.46404980265548124	2.0458330028298795	0.1773400946953713	0.18541888655733282	1.128809630571383	0.1797433809595034	0.2883110112724584	1.580794347731407	0.18093309950842937	0.4929034462706297	2.021201425530369	0.17850987206266933	0.1292657189392674	1.964398796294801	0.1244609715436287	0.20840772362388618	1.9675842511444792	0.18536296981685324	0.5981165933058867	2.1357580656098873	0.2818711827472469	0.14543990209975008	0.42654901546715396	0.27198368700720443	0.0804673894112643	0.17054375189791687	0.2770755848749541	0.050872004528786256	0.2975404460328845	0.4669429401877808	0.15628541052973788	0.5440233668565534	0.521845288420109	0.12768435488179025	0.8585709972630797	0.3878793550378747	0.034871046190699466	1.0666084145494577	0.30193678314224964	-0.01631328491830536	1.1235995957858578	0.29963244307072734	0.0003295625406979933	1.1461142743069768	0.31113557662816105	0.07301045682464122	1.1581432925078856	0.10080481930622089	0.18174558128536233	0.5510471711450011	0.08759606938317578	0.12144746961024604	0.8276437866784996	0.22307190275083516	0.051354905592559084	1.0446285965427116	0.30147290099932733	-0.006464739200395241	1.0959463001674665	0.3047732523103713	-0.011691533285879806	1.132954422504673	0.2916677802734836	0.03155183567626292	1.1500913909254498
24	0.4	0.40549435715257737	0.18503791337804945	1.102753836448487	0.4073095357152809	0.27895164281433993	1.56214044910569	0.42051514507991716	0.3548884973834632	1.9595194867654064	0.4324155080013279	0.13281517979874155	1.969306141599544	0.4955743327625545	0.22942625458285187	2.0061202884542717	0.40155901155511436	0.4569716235529898	2.0418525611332035	0.17464657619697171	0.20353349683400856	1.1146295013613134	0.18075676030925417	0.2953993767376728	1.5717715357708115	0.1792135937139378	0.4923500573231561	2.01162185755095	0.1730531234965069	0.14601248587129814	1.9692565357048135	0.11491639061005772	0.2215499230325865	1.972424931735143	0.18429902303595858	0.6017181305188268	2.127194485516693	0.2786261592483882	0.1350462956995888	0.42687562742024915	0.2720540817356905	0.08011326530161342	0.1703800233559137	0.2771225017726262	0.050672728716090076	0.2975637418024055	0.46624191794015457	0.1429938127026938	0.542899399470122	0.5215147236768067	0.12752043412961253	0.8585516656319925	0.39623415266290635	0.04579112000977251	1.0729046994602787	0.29829064880023864	-0.005467549520453834	1.127637510962	0.29157924378848005	0.02118198184711561	1.1563955290462058	0.31288368171833114	0.08517574744267845	1.1770863300372758	0.09839864982758445	0.17043679215042923	0.5507391547240148	0.08755283293535682	0.12172030971851473	0.8275449606484567	0.2191957630823544	0.06531471903697218	1.0527470437460735	0.3014768399082684	-0.004991084782956851	1.1033860073210706	0.3054269483386351	-0.009749881136142046	1.1412177585687386	0.2800338544042814	0.055918738711228745	1.1661028136951814
25	0.4166666666666667	0.4048419874493068	0.18357163982365984	1.0983365834350605	0.4073795404853864	0.27878021574729145	1.562106928108301	0.4213629221736551	0.3544882173938518	1.9587465605983567	0.43712230777926936	0.14538637087230488	1.9764677028057167	0.4960983588606248	0.23024653678406043	2.0067629066030817	0.41083720768816645	0.4448269588981992	2.0343234139496444	0.17863884162269866	0.20563355821077495	1.1148215901599245	0.1795591904056766	0.2950950040228212	1.5637208236915763	0.17903389441682718	0.49199892427298786	2.011522960853113	0.1775968008505726	0.13234975688329673	1.9611671696724844	0.11935078483033354	0.20714074174097133	1.9675679484587747	0.1789846925824027	0.5960082932211227	2.123524634235133	0.2786186004048277	0.13504095085996992	0.42684762185478786	0.27191157321855497	0.07889744610392721	0.16760187776602897	0.2771242964745689	0.05068550933596923	0.29755189944113175	0.46562748021173256	0.14509873011034366	0.5396410827206138	0.5214119962538746	0.1276410035495473	0.8587450404100936	0.4045067771823707	0.04304909066186776	1.0784185171269107	0.30043344402446087	-0.004080545023318455	1.1370283223317863	0.2992413512276235	0.012280235056630884	1.1664196600193804	0.32210456417612104	0.08436653470285257	1.1842266033349702	0.09841437844446492	0.1704336563144711	0.550759583197592	0.087505674329612	0.12174011376620004	0.8276698035818778	0.21681451320936737	0.05504313792205732	1.0621335390079942	0.2982678959461212	0.008347747970941372	1.1077215827318139	0.3032003364830089	0.0035946497643915454	1.1529470491155613	0.27573207237608194	0.060958820031236295	1.1806810035286892
26	0.43333333333333335	0.4075242013163862	0.19556046533829582	1.0891866390816745	0.40723802126126685	0.281621653016992	1.5544510931974456	0.4212346497648421	0.35768032391659166	1.9560666662839084	0.44138670131966834	0.15663619880853236	1.982645589628497	0.5003252360795715	0.2410258510122087	2.0123790920137856	0.4020162844528175	0.45923729678077024	2.0421935036438237	0.18217614989422956	0.194570156279162	1.0995749871026639	0.1845407257861655	0.2822850797684498	1.5608876781864651	0.17428165468954265	0.4892600189455716	2.0103723731598655	0.1775163602899954	0.13282986842867736	1.9615470901086003	0.11450641744606194	0.22028214981891198	1.9752329406394926	0.17823320970225728	0.598154654475273	2.118956137588374	0.27863096171215995	0.13499424573740737	0.42679808223579546	0.27193768836419024	0.07885910129410426	0.16756753845633077	0.2744097012869032	0.0409345469539244	0.29816272252626	0.4656248213001339	0.14509851688110653	0.5395921766807883	0.5209341878156363	0.12986234971058988	0.8479735856900528	0.4088455412897192	0.052923883617795785	1.0798017328311813	0.30480440967563976	-0.003346081399852592	1.152117246775693	0.3083891093594444	0.012600067629946407	1.1702054352155542	0.33450085821931336	0.09598239486904366	1.1899480931169537	0.09829442096096379	0.17028801265560334	0.5508141124956344	0.08379511570321134	0.11927662017026469	0.8274513951699058	0.21300028817393307	0.043689571244124495	1.0635194588471373	0.28789650465546796	0.001269791875547868	1.1100892740630879	0.2901969537470676	-0.012627618559103276	1.1538402255357125	0.2662326953963316	0.047387720057938267	1.1824937825062356
27	0.45	0.40006874862712377	0.21064981057449073	1.093257477843553	0.4107784637040631	0.267327401613058	1.5478927360893586	0.4212281932966999	0.3576956112646129	1.9561801646995784	0.4415498816148301	0.15793762967302716	1.9836383896523107	0.5007099229481446	0.24211495942641614	2.013368579447907	0.4032519989064362	0.46147379031124824	2.0469121242346473	0.17661436424788177	0.20853344620297196	1.091564185573032	0.18147877551237562	0.300787885503034	1.5761111590857297	0.1802683731032022	0.4952319379337475	2.0176992636645115	0.17305718070274284	0.14624063385927014	1.969604953241479	0.1145140663257128	0.22069719298113183	1.9754892065079797	0.1789282771782489	0.595882330950108	2.1225040699474684	0.27859516645882476	0.13500141483501574	0.42680273785887524	0.27548773648482056	0.06842045630821582	0.17080866734792774	0.27443895820013703	0.04092081617176983	0.29818462522287714	0.46622025556902746	0.14305765143514404	0.5429348225854757	0.5206464855097529	0.13175389031854906	0.8444619149970819	0.42861118970734124	0.0640125071196226	1.0802259832581202	0.3246623269268597	0.022251958359382467	1.1721588952608957	0.3247593881743743	0.046519878267796466	1.185310933857368	0.3651368859864484	0.10137284832881326	1.194019164445691	0.09816885886264783	0.17032700052779096	0.5508465189315328	0.08001129749490674	0.11678905394445785	0.8272492201236445	0.19700527934248635	0.04711793805930059	1.066467233947038	0.26629726767285655	-0.0060242305164683084	1.1182121803170728	0.2717651253635458	-0.01105947852558683	1.1681840177351228	0.24179000498722222	0.048023316158347686	1.1847245029315074
